# xmcd
#
# Track frame offsets:
#	150
#	19044
#	42287
#	62413
#	81708
#	105463
#	120707
#	141128
#	158120
#	181693
#
# Disc length: 2606 seconds
#
# Revision: 1
# Processed by: cddbd v1.5.2PL0 Copyright (c) Steve Scherf et al.
# Submitted via: EZCDAudioConverter 8.0.2.1
#
DISCID=7b0a2c0a
DTITLE=Như Ý - Vol 03. Một Ngày Anh Đến
DYEAR=2009
DGENRE=World Pop
TTITLE0=Anh có phải người đàn ông tốt
TTITLE1=Có duyên không phận
TTITLE2=Người muộn màng đã đến trước
TTITLE3=Em vẫn chờ
TTITLE4=Tim lạnh
TTITLE5=Giấc mơ ngày xưa
TTITLE6=Mong người đừng làm khổ tôi
TTITLE7=Con tim đổi thay
TTITLE8=Phận tơ tằm
TTITLE9=Một Ngày Anh Đến
EXTD=
EXTT0=
EXTT1=
EXTT2=
EXTT3=
EXTT4=
EXTT5=
EXTT6=
EXTT7=
EXTT8=
EXTT9=
PLAYORDER=
